<svg width="64" height="35" viewBox="0 0 64 35" fill="none" xmlns="http://www.w3.org/2000/svg">
<path d="M0 3H62V34H0V3Z" fill="black"/>
<path d="M5.02 8H3.88L2.44 5.48V8H1.36V3.8H2.5L3.94 6.32V3.8H5.02V8ZM8.44281 4.94C8.44281 4.7 8.32281 4.58 8.08281 4.58H7.06281C6.82281 4.58 6.70281 4.7 6.70281 4.94V6.86C6.70281 7.1 6.82281 7.22 7.06281 7.22H8.08281C8.32281 7.22 8.44281 7.1 8.44281 6.86V4.94ZM9.52281 6.86C9.52281 7.28 9.42681 7.586 9.23481 7.778C9.04681 7.966 8.74281 8.06 8.32281 8.06H6.82281C6.40281 8.06 6.09681 7.966 5.90481 7.778C5.71681 7.586 5.62281 7.28 5.62281 6.86V4.94C5.62281 4.52 5.71681 4.216 5.90481 4.028C6.09681 3.836 6.40281 3.74 6.82281 3.74H8.32281C8.74281 3.74 9.04681 3.836 9.23481 4.028C9.42681 4.216 9.52281 4.52 9.52281 4.94V6.86ZM10.1256 3.8H12.6456C13.0656 3.8 13.3696 3.896 13.5576 4.088C13.7496 4.276 13.8456 4.58 13.8456 5V5.54C13.8456 5.872 13.7896 6.13 13.6776 6.314C13.5696 6.498 13.3956 6.62 13.1556 6.68L13.9056 8H12.7356L12.0456 6.74H11.2056V8H10.1256V3.8ZM12.7656 5C12.7656 4.76 12.6456 4.64 12.4056 4.64H11.2056V5.9H12.4056C12.6456 5.9 12.7656 5.78 12.7656 5.54V5ZM16.484 8H15.404V4.64H14.144V3.8H17.744V4.64H16.484V8ZM21.4947 8H18.1647V3.8H21.4947V4.64H19.2447V5.45H21.0147V6.29H19.2447V7.16H21.4947V8Z" fill="white"/>
<line x1="1" y1="30.5" x2="30" y2="30.5" stroke="url(#paint0_linear_29_23)" stroke-width="6"/>
<line x1="1" y1="22.5" x2="30" y2="22.5" stroke="white" stroke-width="6"/>
<line x1="27" y1="25.5" x2="27" y2="3.5" stroke="white" stroke-width="6"/>
<line x1="4" y1="24.5" x2="4" y2="16.5" stroke="white" stroke-width="6"/>
<line x1="35" y1="21.5" x2="35" y2="33.5" stroke="white" stroke-width="6"/>
<line x1="61" y1="30.5" x2="38" y2="30.5" stroke="white" stroke-width="6"/>
<line x1="61" y1="6.5" x2="32" y2="6.5" stroke="white" stroke-width="6"/>
<line x1="59.1821" y1="27.2307" x2="34.4884" y2="10.762" stroke="white" stroke-width="6"/>
<line x1="58" y1="4.5" x2="58" y2="16.5" stroke="white" stroke-width="6"/>
<line x1="35" y1="3.5" x2="35" y2="15.5" stroke="white" stroke-width="6"/>
<line x1="58" y1="21" x2="58" y2="33" stroke="white" stroke-width="6"/>
<path d="M61 18.9999L61 24.9995L43.9961 13.496L61 18.9999Z" fill="black"/>
<path d="M61 18.9999L61 24.9995L43.9961 13.496L61 18.9999Z" fill="black"/>
<path d="M50.499 24.9994L49.4992 26.4994L31 15L30.9998 12L32.5002 13.0005L50.499 24.9994Z" fill="black"/>
<defs>
<linearGradient id="paint0_linear_29_23" x1="1" y1="34" x2="30" y2="34" gradientUnits="userSpaceOnUse">
<stop stop-color="#F4E60B"/>
<stop offset="0.5" stop-color="#018D5E"/>
<stop offset="1" stop-color="#3178C6"/>
</linearGradient>
</defs>
</svg>
